<svg width="86" height="18" viewBox="0 0 86 18" fill="none" xmlns="http://www.w3.org/2000/svg">
<path d="M13.056 13.436H5.356L3.838 17H0.89L7.82 1.6H10.636L17.588 17H14.596L13.056 13.436ZM12.11 11.192L9.206 4.46L6.324 11.192H12.11ZM19.2825 5.252H22.0325V17H19.2825V5.252ZM20.6685 3.316C20.1698 3.316 19.7518 3.162 19.4145 2.854C19.0772 2.53133 18.9085 2.13533 18.9085 1.666C18.9085 1.19667 19.0772 0.807999 19.4145 0.499999C19.7518 0.177333 20.1698 0.0159997 20.6685 0.0159997C21.1672 0.0159997 21.5852 0.169999 21.9225 0.477999C22.2598 0.771333 22.4285 1.14533 22.4285 1.6C22.4285 2.084 22.2598 2.49467 21.9225 2.832C21.5998 3.15467 21.1818 3.316 20.6685 3.316ZM28.2599 6.968C29.0519 5.736 30.4452 5.12 32.4399 5.12V7.738C32.2052 7.694 31.9926 7.672 31.8019 7.672C30.7312 7.672 29.8952 7.98733 29.2939 8.618C28.6926 9.234 28.3919 10.1287 28.3919 11.302V17H25.6419V5.252H28.2599V6.968ZM34.9293 1.6H37.7893V14.58H45.8413V17H34.9293V1.6ZM52.4307 5.12C54.1613 5.12 55.4813 5.538 56.3907 6.374C57.3147 7.19533 57.7767 8.442 57.7767 10.114V17H55.1807V15.57C54.8433 16.0833 54.3593 16.4793 53.7287 16.758C53.1127 17.022 52.3647 17.154 51.4847 17.154C50.6047 17.154 49.8347 17.0073 49.1747 16.714C48.5147 16.406 48.0013 15.988 47.6347 15.46C47.2827 14.9173 47.1067 14.3087 47.1067 13.634C47.1067 12.578 47.4953 11.7347 48.2727 11.104C49.0647 10.4587 50.304 10.136 51.9907 10.136H55.0267V9.96C55.0267 9.13867 54.7773 8.508 54.2787 8.068C53.7947 7.628 53.0687 7.408 52.1007 7.408C51.4407 7.408 50.788 7.51067 50.1427 7.716C49.512 7.92133 48.9767 8.20733 48.5367 8.574L47.4587 6.572C48.0747 6.10267 48.8153 5.74333 49.6807 5.494C50.546 5.24467 51.4627 5.12 52.4307 5.12ZM52.0567 15.152C52.746 15.152 53.3547 14.998 53.8827 14.69C54.4253 14.3673 54.8067 13.9127 55.0267 13.326V11.962H52.1887C50.6047 11.962 49.8127 12.4827 49.8127 13.524C49.8127 14.0227 50.0107 14.4187 50.4067 14.712C50.8027 15.0053 51.3527 15.152 52.0567 15.152ZM67.818 5.12C68.962 5.12 69.9813 5.36933 70.876 5.868C71.7853 6.36667 72.4966 7.07067 73.01 7.98C73.5233 8.88933 73.78 9.938 73.78 11.126C73.78 12.314 73.5233 13.37 73.01 14.294C72.4966 15.2033 71.7853 15.9073 70.876 16.406C69.9813 16.9047 68.962 17.154 67.818 17.154C67.0113 17.154 66.2706 17.0147 65.596 16.736C64.936 16.4573 64.3786 16.0393 63.924 15.482V17H61.306V0.675999H64.056V6.682C64.5253 6.16867 65.0753 5.78 65.706 5.516C66.3513 5.252 67.0553 5.12 67.818 5.12ZM67.51 14.8C68.522 14.8 69.3506 14.4627 69.996 13.788C70.656 13.1133 70.986 12.226 70.986 11.126C70.986 10.026 70.656 9.13867 69.996 8.464C69.3506 7.78933 68.522 7.452 67.51 7.452C66.85 7.452 66.256 7.606 65.728 7.914C65.2 8.20733 64.782 8.63267 64.474 9.19C64.166 9.74733 64.012 10.3927 64.012 11.126C64.012 11.8593 64.166 12.5047 64.474 13.062C64.782 13.6193 65.2 14.052 65.728 14.36C66.256 14.6533 66.85 14.8 67.51 14.8ZM80.018 17.154C79.0647 17.154 78.1333 17.0293 77.224 16.78C76.3147 16.5307 75.5887 16.2153 75.046 15.834L76.102 13.744C76.63 14.096 77.2607 14.382 77.994 14.602C78.742 14.8073 79.4753 14.91 80.194 14.91C81.8367 14.91 82.658 14.4773 82.658 13.612C82.658 13.2013 82.4453 12.9153 82.02 12.754C81.6093 12.5927 80.942 12.4387 80.018 12.292C79.05 12.1453 78.258 11.9767 77.642 11.786C77.0407 11.5953 76.5127 11.2653 76.058 10.796C75.618 10.312 75.398 9.64467 75.398 8.794C75.398 7.67933 75.86 6.792 76.784 6.132C77.7227 5.45733 78.984 5.12 80.568 5.12C81.3747 5.12 82.1813 5.21533 82.988 5.406C83.7947 5.582 84.4547 5.824 84.968 6.132L83.912 8.222C82.9147 7.63533 81.7927 7.342 80.546 7.342C79.7393 7.342 79.1233 7.46667 78.698 7.716C78.2873 7.95067 78.082 8.266 78.082 8.662C78.082 9.102 78.302 9.41733 78.742 9.608C79.1967 9.784 79.8933 9.95267 80.832 10.114C81.7707 10.2607 82.5407 10.4293 83.142 10.62C83.7433 10.8107 84.2567 11.1333 84.682 11.588C85.122 12.0427 85.342 12.688 85.342 13.524C85.342 14.624 84.8653 15.504 83.912 16.164C82.9587 16.824 81.6607 17.154 80.018 17.154Z" fill="#29291E"/>
</svg>
