<svg width="89" height="19" viewBox="0 0 89 19" fill="none" xmlns="http://www.w3.org/2000/svg">
<path d="M12.968 14.7H5.818L4.454 18H0.802L7.666 2.6H11.186L18.072 18H14.332L12.968 14.7ZM11.846 11.994L9.404 6.098L6.962 11.994H11.846ZM19.6477 6.164H23.0797V18H19.6477V6.164ZM21.3637 4.514C20.7331 4.514 20.2197 4.33067 19.8237 3.964C19.4277 3.59733 19.2297 3.14267 19.2297 2.6C19.2297 2.05733 19.4277 1.60267 19.8237 1.236C20.2197 0.869332 20.7331 0.685999 21.3637 0.685999C21.9944 0.685999 22.5077 0.861999 22.9037 1.214C23.2997 1.566 23.4977 2.006 23.4977 2.534C23.4977 3.106 23.2997 3.58267 22.9037 3.964C22.5077 4.33067 21.9944 4.514 21.3637 4.514ZM29.7629 7.726C30.1736 7.154 30.7236 6.72133 31.4129 6.428C32.1169 6.13467 32.9236 5.988 33.8329 5.988V9.156C33.4516 9.12667 33.1949 9.112 33.0629 9.112C32.0803 9.112 31.3103 9.39067 30.7529 9.948C30.1956 10.4907 29.9169 11.312 29.9169 12.412V18H26.4849V6.164H29.7629V7.726ZM36.2712 2.6H39.8352V15.096H47.5572V18H36.2712V2.6ZM54.4294 5.988C56.2627 5.988 57.6707 6.428 58.6534 7.308C59.6361 8.17333 60.1274 9.486 60.1274 11.246V18H56.9154V16.526C56.2701 17.626 55.0674 18.176 53.3074 18.176C52.3981 18.176 51.6061 18.022 50.9314 17.714C50.2714 17.406 49.7654 16.9807 49.4134 16.438C49.0614 15.8953 48.8854 15.2793 48.8854 14.59C48.8854 13.49 49.2961 12.6247 50.1174 11.994C50.9534 11.3633 52.2367 11.048 53.9674 11.048H56.6954C56.6954 10.3 56.4681 9.728 56.0134 9.332C55.5587 8.92133 54.8767 8.716 53.9674 8.716C53.3367 8.716 52.7134 8.81867 52.0974 9.024C51.4961 9.21467 50.9827 9.47867 50.5574 9.816L49.3254 7.418C49.9707 6.96333 50.7407 6.61133 51.6354 6.362C52.5447 6.11267 53.4761 5.988 54.4294 5.988ZM54.1654 15.866C54.7521 15.866 55.2727 15.734 55.7274 15.47C56.1821 15.1913 56.5047 14.788 56.6954 14.26V13.05H54.3414C52.9334 13.05 52.2294 13.512 52.2294 14.436C52.2294 14.876 52.3981 15.228 52.7354 15.492C53.0874 15.7413 53.5641 15.866 54.1654 15.866ZM70.4495 5.988C71.5495 5.988 72.5469 6.24467 73.4415 6.758C74.3509 7.25667 75.0622 7.968 75.5755 8.892C76.0889 9.80133 76.3455 10.8647 76.3455 12.082C76.3455 13.2993 76.0889 14.37 75.5755 15.294C75.0622 16.2033 74.3509 16.9147 73.4415 17.428C72.5469 17.9267 71.5495 18.176 70.4495 18.176C68.8215 18.176 67.5822 17.6627 66.7315 16.636V18H63.4535V1.676H66.8855V7.418C67.7509 6.46467 68.9389 5.988 70.4495 5.988ZM69.8555 15.36C70.7355 15.36 71.4542 15.0667 72.0115 14.48C72.5835 13.8787 72.8695 13.0793 72.8695 12.082C72.8695 11.0847 72.5835 10.2927 72.0115 9.706C71.4542 9.10467 70.7355 8.804 69.8555 8.804C68.9755 8.804 68.2495 9.10467 67.6775 9.706C67.1202 10.2927 66.8415 11.0847 66.8415 12.082C66.8415 13.0793 67.1202 13.8787 67.6775 14.48C68.2495 15.0667 68.9755 15.36 69.8555 15.36ZM82.845 18.176C81.8623 18.176 80.9017 18.0587 79.963 17.824C79.0243 17.5747 78.2763 17.2667 77.719 16.9L78.863 14.436C79.391 14.7733 80.029 15.052 80.777 15.272C81.525 15.4773 82.2583 15.58 82.977 15.58C84.429 15.58 85.155 15.2207 85.155 14.502C85.155 14.1647 84.957 13.9227 84.561 13.776C84.165 13.6293 83.5563 13.5047 82.735 13.402C81.767 13.2553 80.9677 13.0867 80.337 12.896C79.7063 12.7053 79.1563 12.368 78.687 11.884C78.2323 11.4 78.005 10.7107 78.005 9.816C78.005 9.068 78.2177 8.408 78.643 7.836C79.083 7.24933 79.7137 6.79467 80.535 6.472C81.371 6.14933 82.3537 5.988 83.483 5.988C84.319 5.988 85.1477 6.08333 85.969 6.274C86.805 6.45 87.4943 6.69933 88.037 7.022L86.893 9.464C85.8517 8.87733 84.715 8.584 83.483 8.584C82.7497 8.584 82.1997 8.68667 81.833 8.892C81.4663 9.09733 81.283 9.36133 81.283 9.684C81.283 10.0507 81.481 10.3073 81.877 10.454C82.273 10.6007 82.9037 10.74 83.769 10.872C84.737 11.0333 85.529 11.2093 86.145 11.4C86.761 11.576 87.2963 11.906 87.751 12.39C88.2057 12.874 88.433 13.5487 88.433 14.414C88.433 15.1473 88.213 15.8 87.773 16.372C87.333 16.944 86.6877 17.3913 85.837 17.714C85.001 18.022 84.0037 18.176 82.845 18.176Z" fill="white"/>
</svg>
